<?xml version="1.0" encoding="UTF-8"?>
<!DOCTYPE svg PUBLIC "-//W3C//DTD SVG 1.1//EN" "http://www.w3.org/Graphics/SVG/1.1/DTD/svg11.dtd">
<svg version="1.1" xmlns="http://www.w3.org/2000/svg" xmlns:xlink="http://www.w3.org/1999/xlink" x="0" y="0" width="512" height="512" viewBox="0, 0, 512, 512">
  <g id="Background">
    <rect x="0" y="0" width="512" height="512" fill="#000000" fill-opacity="0"/>
  </g>
  <defs>
    <clipPath id="Clip_1">
      <path d="M-1,-4 L513,-4 L513,514 L-1,514 z M256,1 C115.72,1 2,114.72 2,255 C2,395.28 115.72,509 256,509 C396.28,509 510,395.28 510,255 C510,114.72 396.28,1 256,1 z"/>
    </clipPath>
    <filter id="Shadow_2">
      <feGaussianBlur in="SourceAlpha" stdDeviation="1"/>
      <feOffset dx="0" dy="2" result="offsetblur"/>
      <feFlood flood-color="#000000"/>
      <feComposite in2="offsetblur" operator="in"/>
    </filter>
    <linearGradient id="Gradient_1" gradientUnits="userSpaceOnUse" x1="256" y1="1" x2="256" y2="509">
      <stop offset="0" stop-color="#464646"/>
      <stop offset="1" stop-color="#161616"/>
    </linearGradient>
    <linearGradient id="Gradient_2" gradientUnits="userSpaceOnUse" x1="256" y1="24" x2="256" y2="486">
      <stop offset="0" stop-color="#3A393A"/>
      <stop offset="1" stop-color="#010102"/>
    </linearGradient>
  </defs>
  <g id="Layer_1">
    <g id="Outer">
      <path d="M256,1 C396.28,1 510,114.72 510,255 C510,395.28 396.28,509 256,509 C115.72,509 2,395.28 2,255 C2,114.72 115.72,1 256,1 z" clip-path="url(#Clip_1)" filter="url(#Shadow_2)" fill="rgba(0,0,0,0.75)"/>
      <path d="M256,509 C115.72,509 2,395.28 2,255 C2,114.72 115.72,1 256,1 C396.28,1 510,114.72 510,255 C510,395.28 396.28,509 256,509 z" fill="url(#Gradient_1)"/>
    </g>
    <path d="M256,486 C128.422,486 25,382.578 25,255 C25,127.422 128.422,24 256,24 C383.578,24 487,127.422 487,255 C487,382.578 383.578,486 256,486 z" fill="url(#Gradient_2)"/>
    <g>
      <g>
        <path d="M256,330.001 C297.355,330.001 331,296.356 331,254.999 C331,213.644 297.355,179.999 256,179.999 C214.645,179.999 181,213.645 181,255.001 C181,296.356 214.645,330.001 256,330.001 z" fill="#1C1C1C"/>
        <path d="M256,154.999 C311.163,154.999 356,199.837 356,254.999 C356,310.163 311.163,355.001 256,355 C200.837,355.001 156,310.163 156,255.001 C156,199.838 200.838,154.999 256,154.999 z M256,179.999 C214.645,179.999 181,213.645 181,255.001 C181,296.356 214.645,330.001 256,330.001 C297.355,330.001 331,296.356 331,254.999 C331,213.644 297.355,179.999 256,179.999 z" fill="#DDDDDD"/>
      </g>
      <path d="M241.001,270 L271.001,270 L271.001,240 L241.001,240 z" fill="#EEEEEE" display="none"/>
      <path d="M241.001,232.68 L260.294,243.819 L279.588,254.958 L260.294,266.097 L241.001,277.237 L241.001,254.958 z" fill="#EEEEEE"/>
      <g>
        <path d="M160.885,138.672 C186.815,117.431 219.944,104.667 256,104.667 L256,74.667 C211.67,74.667 171.034,90.755 139.598,117.386 z" fill="#EEEEEE"/>
        <path d="M160.885,138.672 C186.815,117.431 219.944,104.667 256,104.667 L256,74.667 C211.67,74.667 171.034,90.755 139.598,117.386 z" fill-opacity="0" stroke="#1C1C1C" stroke-width="1"/>
      </g>
      <g>
        <path d="M118.385,138.599 C91.755,170.034 75.667,210.671 75.666,255 L105.666,255 C105.666,218.944 118.43,185.815 139.671,159.885 L118.385,138.599 z" fill="#02A66A"/>
        <path d="M118.385,138.599 C91.755,170.034 75.667,210.671 75.666,255 L105.666,255 C105.666,218.944 118.43,185.815 139.671,159.885 L118.385,138.599 z" fill-opacity="0" stroke="#02A66A" stroke-width="1"/>
      </g>
      <g>
        <path d="M256,435.333 C300.329,435.333 340.966,419.245 372.401,392.614 L351.116,371.328 C325.185,392.569 292.056,405.333 256,405.333 z" fill="#EEEEEE"/>
        <path d="M256,435.333 C300.329,435.333 340.966,419.245 372.401,392.614 L351.116,371.328 C325.185,392.569 292.056,405.333 256,405.333 z" fill-opacity="0" stroke="#1C1C1C" stroke-width="1"/>
      </g>
      <g>
        <path d="M393.615,371.401 C420.246,339.966 436.333,299.329 436.333,254.999 L406.333,254.999 C406.333,291.056 393.57,324.185 372.328,350.115 L393.615,371.401 z" fill="#02A66A"/>
        <path d="M393.615,371.401 C420.246,339.966 436.333,299.329 436.333,254.999 L406.333,254.999 C406.333,291.056 393.57,324.185 372.328,350.115 L393.615,371.401 z" fill-opacity="0" stroke="#02A66A" stroke-width="1"/>
      </g>
    </g>
  </g>
</svg>
